/* XPM */
static char * _20061990183729696[] = {
"32 32 86 1",
" 	c None",
".	c #FF3A3A",
"+	c #FF3939",
"@	c #FF5858",
"#	c #FF8A8A",
"$	c #FFB7B7",
"%	c #FFC7C7",
"&	c #FFCACA",
"*	c #FFBFBF",
"=	c #FFADAD",
"-	c #FF8E8E",
";	c #FF6464",
">	c #FF3C3C",
",	c #FF5D5D",
"'	c #FFBCBC",
")	c #FFFFFF",
"!	c #FFF2F2",
"~	c #FFB0B0",
"{	c #FF6363",
"]	c #FF5E5E",
"^	c #FFCBCB",
"/	c #FF6161",
"(	c #FF5B5B",
"_	c #FF9A9A",
":	c #FFFDFD",
"<	c #FFA8A8",
"[	c #FF3F3F",
"}	c #FF6060",
"|	c #FFE6E6",
"1	c #FFD8D8",
"2	c #FF5050",
"3	c #FF9292",
"4	c #FFE8E8",
"5	c #FFD1D1",
"6	c #FFE9E9",
"7	c #FF5151",
"8	c #FF7676",
"9	c #FFFBFB",
"0	c #FF5959",
"a	c #FFB2B2",
"b	c #FF5C5C",
"c	c #FF6666",
"d	c #FFF0F0",
"e	c #FFA1A1",
"f	c #FFC9C9",
"g	c #FF5F5F",
"h	c #FFE7E7",
"i	c #FF6262",
"j	c #FFA0A0",
"k	c #FFAFAF",
"l	c #FF6565",
"m	c #FFF7F7",
"n	c #FFC6C6",
"o	c #FF6969",
"p	c #FF6E6E",
"q	c #FF9797",
"r	c #FF8D8D",
"s	c #FF3B3B",
"t	c #FF6767",
"u	c #FFC1C1",
"v	c #FFF8F8",
"w	c #FFE5E5",
"x	c #FF9696",
"y	c #FFC5C5",
"z	c #FFF6F6",
"A	c #FFABAB",
"B	c #FFBDBD",
"C	c #FFFEFE",
"D	c #FF5A5A",
"E	c #FFCECE",
"F	c #FF6D6D",
"G	c #FF9E9E",
"H	c #FF6868",
"I	c #FFB1B1",
"J	c #FFDBDB",
"K	c #FFF5F5",
"L	c #FFD4D4",
"M	c #FFB5B5",
"N	c #FF6B6B",
"O	c #FFDADA",
"P	c #FF8787",
"Q	c #FF9C9C",
"R	c #FFCCCC",
"S	c #FFBBBB",
"T	c #FFC8C8",
"U	c #FF5757",
"            ........            ",
"         .............+         ",
"       .................+       ",
"      ....................      ",
"     @#$%&*=-;>............     ",
"    ,'))))))))!~{...........    ",
"   ,]^)))))))))))^/..........   ",
"  (]]_)))))))))))):<[........+  ",
"  ]]]}|)))))))))))))12........  ",
" ,]]]]3))))))))))))))4@........ ",
" ]]]]]]5))))))))))))))67......+ ",
" ]]]]]]89))))))))))))))1[...... ",
"0]]]]]]]a)))))))))))))))<.......",
"b]]]]]]]cd)))))))))))))):}......",
"b]]]]]]]]e)))))))))))))))f......",
"g]]]]]]]]/h)))))))))))))))i.....",
"]]]]]]]]]]j)))))))))))))))k.....",
",]]]]]]]]]lm))))))))))))))d>....",
",]]]]]]]]]]n)))))))))))))))/....",
"(]]]]]]]opiq)))))))))))))))r...s",
" ]]]]tuv)))wxyz))))))))))))A... ",
" ,]]]B)))))Ci]ljh))))))))))*..+ ",
" D]]]E))))))F]]]/jd))))))))f... ",
"  ]]]G))))))H]]]]]cI9))))))y..  ",
"  0]]/J))))Kg]]]]]]]8L)))))M.s  ",
"   ]]]NO)))*]]]]]]]]]]3w)))P.   ",
"    ]]]/QRSc]]]]]]]]]]]}qTSU    ",
"     ,]]]]]]]]]]]]]]]]]]]]]     ",
"      }]]]]]]]]]]]]]]]]]],      ",
"       D]]]]]]]]]]]]]]]g(       ",
"         D,]]]]]]]]]],b         ",
"            bb],g,bD            "};
