<svg xmlns="http://www.w3.org/2000/svg" xmlns:xlink="http://www.w3.org/1999/xlink" viewBox="0 0 84 90"><defs><linearGradient id="a" x1=".643%" x2="99.357%" y1="49.357%" y2="49.357%"><stop offset="0%" stop-color="#392DD1"/><stop offset="100%" stop-color="#A91B78"/></linearGradient><linearGradient id="b" x1="0%" y1="50.706%" y2="50.706%"><stop offset="0%" stop-color="#F50"/><stop offset="40.988%" stop-color="#F50"/><stop offset="58.198%" stop-color="#FF2000"/><stop offset="100%" stop-color="#FF2000"/></linearGradient><linearGradient id="c" x1="2.148%" y1="50.706%" y2="50.706%"><stop offset="0%" stop-color="#FF452A"/><stop offset="100%" stop-color="#FF2000"/></linearGradient><path id="d" d="M9.295 1.383L8.078 0H3.8L2.584 1.383s-1.07-.297-1.574.208c0 0 1.425-.129 1.915.67 0 0 1.322.252 1.5.252.178 0 .564-.149.92-.268.357-.119.594-.12.594-.12s.238.001.594.12c.357.12.743.268.92.268.18 0 1.5-.253 1.5-.253.49-.798 1.916-.669 1.916-.669-.505-.505-1.574-.208-1.574-.208"/><linearGradient id="e" x1="-18.33%" x2="139.352%" y1="7.408%" y2="107.403%"><stop offset="0%" stop-color="#392DD1"/><stop offset="100%" stop-color="#A91B78"/></linearGradient><path id="f" d="M5.983.89L5.2 0H2.447l-.784.89S.975.7.65 1.024c0 0 .917-.083 1.233.43 0 0 .85.164.965.164.115 0 .363-.096.593-.173.23-.076.382-.077.382-.077s.153 0 .382.077c.23.077.478.173.593.173.115 0 .965-.163.965-.163.316-.514 1.233-.43 1.233-.43C6.671.698 5.983.89 5.983.89"/></defs><g fill="none" fill-rule="evenodd"><path fill="url(#a)" d="M0 3.76A3.767 3.767 0 0 1 3.768 0h63.01a3.771 3.771 0 0 1 3.767 3.76v81.29a3.767 3.767 0 0 1-3.767 3.759H3.768A3.771 3.771 0 0 1 0 85.049V3.76z"/><path fill="#FFF" d="M2.91 5.7c0-1.138.914-2.06 2.061-2.06h60.603c1.14 0 2.062.91 2.062 2.06v67.946c0 1.138-.915 2.06-2.062 2.06H4.971a2.054 2.054 0 0 1-2.062-2.06V5.7z"/><g fill="#F1F1F1" fill-rule="nonzero" opacity=".519" transform="translate(7.455 11.647)"><rect width="32.953" height="2.702" x="17.784" rx=".342"/><rect width="32.106" height="2.702" x="17.784" y="10.036" rx=".342"/><rect width="45.69" height="2.702" x="2" y="48.152" rx=".342"/><rect width="54.805" height="5.79" x=".124" y="22.388" rx=".342"/><rect width="54.929" height="11.966" y="31" rx=".342"/><rect width="37.307" height="1.537" x="17.784" y="5.635" rx=".342"/><rect width="53.387" height="1.537" y="18" rx=".342"/><rect width="51.559" height="1.537" x="2" y="53.787" rx=".342"/></g><ellipse cx="35.636" cy="81.529" fill="#FFF" fill-rule="nonzero" rx="2.909" ry="2.912"/><g xmlns="http://www.w3.org/2000/svg" transform="translate(5 -35)">
  <circle xmlns="http://www.w3.org/2000/svg" id="svg_2" fill="#FF3A3A" r="11.04855" cy="53.06614" cx="10.88623"/>
   <path xmlns="http://www.w3.org/2000/svg" id="svg_3" stroke-width="1.99006" d="m8.10981,58.00851c0,7.34685 -9.4633,-2.15472 -2.14604,-2.15472c7.34151,0 13.33449,9.50157 13.33449,2.15472c0,-7.37121 -5.99625,-13.39084 -13.33449,-13.39084c-7.31726,0 2.14604,6.01963 2.14604,13.39084l0,0" fill="#FFFFFF"/>
   <path xmlns="http://www.w3.org/2000/svg" id="svg_4" stroke-width="0.6202" d="m2.94443,44.79742a11.45795,11.5043 0 1 0 16.1772,16.24263l-16.1772,-16.24263z" fill="#FFFFFF" opacity="0.18373"/>
</g><path fill="url(#e)" d="M0 5.077A5.08 5.08 0 0 1 5.077 0h27.635a5.076 5.076 0 0 1 5.076 5.077v58.698a5.08 5.08 0 0 1-5.076 5.077H5.077A5.076 5.076 0 0 1 0 63.775V5.077z" transform="translate(46 21)"/><path fill="#FFF" d="M47.692 26.029a2.774 2.774 0 0 1 2.772-2.772h28.86a2.767 2.767 0 0 1 2.772 2.772v54.843a2.774 2.774 0 0 1-2.771 2.772H50.464a2.767 2.767 0 0 1-2.772-2.772V26.03zM51.64 85.9c0-.311.262-.564.566-.564h25.376c.313 0 .566.262.566.564a.571.571 0 0 1-.566.565H52.206a.571.571 0 0 1-.566-.565z"/><g transform="translate(52.768 29.465)"><g fill="#EBEBEB" fill-rule="nonzero" transform="translate(.108 .564)"><rect width="11.14" height="1.975" x="11.633" rx=".461"/><rect width="21.357" height="1.975" y="10.158" rx=".461"/><rect width="21.357" height="1.975" y="40.634" rx=".461"/><rect width="24.741" height="4.233" y="19.188" rx=".461"/><rect width="24.741" height="8.748" y="25.961" rx=".461"/></g><rect width="12.574" height="1" x="11.633" y="4.652" fill="#EBEBEB" fill-rule="nonzero" rx=".461"/><rect width="12.574" height="1" x="11.633" y="7.753" fill="#EBEBEB" fill-rule="nonzero" rx=".461"/><rect width="24.105" height="1" y="14.673" fill="#EBEBEB" fill-rule="nonzero" rx=".461"/><rect width="24.105" height="1" y="45.149" fill="#EBEBEB" fill-rule="nonzero" rx=".461"/><g xmlns="http://www.w3.org/2000/svg" transform="translate(2 -55)">
   <circle cx="4.09878" cy="59.9196" r="4.03851" fill="#FF3A3A" id="svg_2"/>
   <path fill="#FFFFFF" d="m3.10559,61.67258c0,2.60582 -3.38524,-0.76425 -0.76769,-0.76425c2.62623,0 4.77005,3.37006 4.77005,0.76425c0,-2.61445 -2.145,-4.74953 -4.77005,-4.74953c-2.61755,0 0.76769,2.13508 0.76769,4.74953l0,0" stroke-width="1.99006" id="svg_3"/>
   <path stroke-width="0.6202" d="m1.36989,56.87523a4.09878,4.0804 0 1 0 5.78744,5.76102l-5.78744,-5.76102z" fill="#FFFFFF" opacity="0.18373" id="svg_4"/>
  </g></g></g></svg>