<svg xmlns="http://www.w3.org/2000/svg" xmlns:xlink="http://www.w3.org/1999/xlink" viewBox="0 0 99 78"><defs><linearGradient id="a" x1=".643%" x2="99.357%" y1="49.357%" y2="49.357%"><stop offset="0%" stop-color="#392DD1"/><stop offset="100%" stop-color="#A91B78"/></linearGradient><linearGradient id="b" x1="78.208%" x2="57.719%" y1="100%" y2="-320.563%"><stop offset="0%" stop-color="#392DD1"/><stop offset="100%" stop-color="#A91B78"/></linearGradient><linearGradient id="c" x1="0%" y1="50.706%" y2="50.706%"><stop offset="0%" stop-color="#F50"/><stop offset="40.988%" stop-color="#F50"/><stop offset="58.198%" stop-color="#FF2000"/><stop offset="100%" stop-color="#FF2000"/></linearGradient><linearGradient id="d" x1="2.148%" y1="50.706%" y2="50.706%"><stop offset="0%" stop-color="#FF452A"/><stop offset="100%" stop-color="#FF2000"/></linearGradient><path id="e" d="M9.99 1.387L8.682 0H4.086l-1.31 1.387s-1.148-.298-1.69.21c0 0 1.531-.13 2.058.67 0 0 1.42.254 1.612.254.191 0 .606-.15.99-.269.382-.119.638-.12.638-.12s.255.001.638.12c.383.12.798.269.99.269.191 0 1.611-.254 1.611-.254.527-.8 2.06-.67 2.06-.67-.544-.508-1.693-.21-1.693-.21"/></defs><g fill="none" fill-rule="evenodd"><path fill="url(#a)" d="M6.208 3.544A3.544 3.544 0 0 1 9.755 0h78.938a3.551 3.551 0 0 1 3.546 3.544v63.695H6.21V3.544z"/><path fill="url(#b)" d="M1.427 71.547C-.341 69.168.63 67.24 3.595 67.24H95.74c2.965 0 3.834 1.86 1.952 4.139l-5.453 6.605H6.21l-4.782-6.436z" transform="matrix(1 0 0 -1 0 145.223)"/><path fill="#000" fill-opacity=".26" d="M6.373 72.142c-1.454 1.586-.9 2.873 1.254 2.873h84.07c2.147 0 2.65-1.215 1.118-2.72l-5.148-5.055H10.866l-4.493 4.902z"/><path fill="#FFF" d="M9.756 6.923a2.5 2.5 0 0 1 2.515-2.5h73.906a2.508 2.508 0 0 1 2.515 2.5v49.854a2.5 2.5 0 0 1-2.515 2.5H12.271a2.508 2.508 0 0 1-2.515-2.5V6.923z"/><g fill="#F1F1F1" fill-rule="nonzero" opacity=".519" transform="translate(17.738 14.156)"><rect width="40.186" height="3.284" x="19.249" rx=".418"/><rect width="39.154" height="3.284" x="19.249" y="12.197" rx=".418"/><rect width="64.548" height="7.037" y="27.21" rx=".418"/><rect width="45.496" height="1.868" x="19.249" y="6.848" rx=".418"/><rect width="62.877" height="1.868" y="20.662" rx=".418"/></g><g xmlns="http://www.w3.org/2000/svg" transform="translate(13 -30)">
 <circle id="svg_2" fill="#FF3A3A" r="11.04855" cy="53.06614" cx="10.88623"/>
   <path id="svg_3" stroke-width="1.99006" d="m8.10981,58.00851c0,7.34685 -9.4633,-2.15472 -2.14604,-2.15472c7.34151,0 13.33449,9.50157 13.33449,2.15472c0,-7.37121 -5.99625,-13.39084 -13.33449,-13.39084c-7.31726,0 2.14604,6.01963 2.14604,13.39084l0,0" fill="#FFFFFF"/>
   <path id="svg_4" stroke-width="0.6202" d="m2.94443,44.79742a11.45795,11.5043 0 1 0 16.1772,16.24263l-16.1772,-16.24263z" fill="#FFFFFF" opacity="0.18373"/>
  
</g></g></svg>