<svg width="300" height="305" xmlns="http://www.w3.org/2000/svg" xmlns:xlink="http://www.w3.org/1999/xlink" viewBox="0 0 330 305"><defs><linearGradient id="a" x1="0%" x2="173.088%" y1="21.282%" y2="140.418%"><stop offset="0%" stop-color="#FB542B"/><stop offset="100%" stop-color="#5118DD"/></linearGradient><linearGradient id="b" x1="0%" y1="50.706%" y2="50.706%"><stop offset="0%" stop-color="#F50"/><stop offset="40.988%" stop-color="#F50"/><stop offset="58.198%" stop-color="#FF2000"/><stop offset="100%" stop-color="#FF2000"/></linearGradient><linearGradient id="c" x1="2.148%" y1="50.706%" y2="50.706%"><stop offset="0%" stop-color="#FF452A"/><stop offset="100%" stop-color="#FF2000"/></linearGradient><path id="d" d="M12.003 1.786L10.43 0H4.909L3.336 1.786s-1.38-.384-2.032.269c0 0 1.84-.167 2.473.864 0 0 1.707.326 1.937.326.23 0 .728-.192 1.189-.346.46-.153.767-.154.767-.154s.306 0 .767.154c.46.154.958.346 1.188.346.23 0 1.937-.326 1.937-.326.633-1.03 2.473-.864 2.473-.864-.652-.653-2.032-.269-2.032-.269"/><path id="e" d="M10.67 1.488L9.271 0H4.363L2.966 1.488s-1.228-.32-1.807.224c0 0 1.636-.138 2.199.72 0 0 1.516.272 1.721.272.205 0 .648-.16 1.057-.288.409-.128.681-.129.681-.129s.273.001.682.13c.41.127.852.287 1.057.287.204 0 1.721-.272 1.721-.272.563-.858 2.199-.72 2.199-.72-.58-.544-1.807-.224-1.807-.224"/><path id="f" d="M10.002 1.488L8.692 0H4.09L2.78 1.488s-1.15-.32-1.693.224c0 0 1.533-.138 2.06.72 0 0 1.423.272 1.615.272.191 0 .607-.16.99-.288.384-.128.64-.129.64-.129s.255.001.638.13c.384.127.8.287.991.287.192 0 1.614-.272 1.614-.272.527-.858 2.061-.72 2.061-.72-.543-.544-1.694-.224-1.694-.224"/></defs><g fill="none" fill-rule="evenodd"><path stroke="#AAA" stroke-dasharray="9.453 9.453" stroke-linecap="round" stroke-linejoin="round" stroke-width="2.836" d="M169 254c54.124 0 98-43.652 98-97.5 0-12.01-2.183-23.514-6.175-34.139C246.917 85.351 211.052 59 169 59c-54.124 0-98 43.652-98 97.5s43.876 97.5 98 97.5z"/><path fill="#B5B5B5" fill-rule="nonzero" d="M104.917 84.547l-7.198 26.03a1.89 1.89 0 0 1-3.085.901L76.648 95.315a1.89 1.89 0 0 1 .575-3.166l25.182-9.866a1.89 1.89 0 0 1 2.512 2.264zM253.04 109.54l-23.789-12.862a1.89 1.89 0 0 1-.183-3.212l19.822-13.85a1.89 1.89 0 0 1 2.953 1.272l3.966 26.712a1.89 1.89 0 0 1-2.769 1.94zM142.44 249.533l25.632-8.612a1.89 1.89 0 0 1 2.474 2.056l-3.372 23.943a1.89 1.89 0 0 1-2.944 1.294l-22.261-15.332a1.89 1.89 0 0 1 .47-3.35z"/><g transform="translate(204 148)"><path fill="url(#a)" d="M0 3.56A3.556 3.556 0 0 1 3.558 0H86.86c1.965 0 3.558 1.6 3.558 3.56v107.633a3.556 3.556 0 0 1-3.558 3.56h-83.3A3.563 3.563 0 0 1 0 111.193V3.56z"/><path fill="#FFF" d="M3.729 6.648c0-1.074.875-1.945 1.948-1.945H84.74c1.076 0 1.949.862 1.949 1.945v89.23a1.949 1.949 0 0 1-1.949 1.944H5.677a1.941 1.941 0 0 1-1.948-1.945V6.647z"/><g fill="#F1F1F1" fill-rule="nonzero" opacity=".519" transform="translate(9.554 15.05)"><rect width="42.235" height="3.491" x="22.794" rx=".324"/><rect width="41.15" height="3.491" x="22.794" y="12.968" rx=".324"/><rect width="58.56" height="3.491" x="2.563" y="62.219" rx=".324"/><rect width="70.243" height="7.481" x=".159" y="28.928" rx=".324"/><rect width="70.402" height="15.461" y="40.056" rx=".324"/><rect width="47.816" height="1.986" x="22.794" y="7.281" rx=".324"/><rect width="68.425" height="1.986" y="23.258" rx=".324"/><rect width="66.083" height="1.986" x="2.563" y="69.5" rx=".324"/></g><ellipse cx="45.675" cy="105.347" fill="#FFF" fill-rule="nonzero" rx="3.729" ry="3.762"/><g xmlns="http://www.w3.org/2000/svg" transform="translate(10 -30)">
   <circle id="svg_2" fill="#FF3A3A" r="11.04855" cy="53.06614" cx="10.88623"/>
   <path id="svg_3" stroke-width="1.99006" d="m8.10981,58.00851c0,7.34685 -9.4633,-2.15472 -2.14604,-2.15472c7.34151,0 13.33449,9.50157 13.33449,2.15472c0,-7.37121 -5.99625,-13.39084 -13.33449,-13.39084c-7.31726,0 2.14604,6.01963 2.14604,13.39084l0,0" fill="#FFFFFF"/>
   <path id="svg_4" stroke-width="0.6202" d="m2.94443,44.79742a11.45795,11.5043 0 1 0 16.1772,16.24263l-16.1772,-16.24263z" fill="#FFFFFF" opacity="0.18373"/>
  

</g></g><path fill="url(#a)" d="M6.643 2.759A2.756 2.756 0 0 1 9.398 0h86.543a2.76 2.76 0 0 1 2.755 2.759v68.736H6.643V2.759z" transform="translate(36 143)"/><path fill="url(#a)" d="M1.527 76.076c-1.892-2.53-.866-4.581 2.281-4.581h98.672c3.152 0 4.075 1.964 2.05 4.4l-5.834 7.024H6.643l-5.116-6.843z" transform="matrix(1 0 0 -1 36 297.414)"/><path fill="#000" fill-opacity=".26" d="M42.797 219.73c-1.544 1.675-.942 3.032 1.333 3.032h90.017c2.28 0 2.805-1.292 1.166-2.891l-5.51-5.376H47.627l-4.829 5.236z"/><path fill="#FFF" d="M46.439 149.644c0-1.072.863-1.94 1.943-1.94h80.575c1.073 0 1.943.87 1.943 1.94v54.444c0 1.072-.863 1.94-1.943 1.94H48.382a1.942 1.942 0 0 1-1.943-1.94v-54.444z"/><g fill="#F1F1F1" fill-rule="nonzero" opacity=".519" transform="translate(54.98 158.052)"><rect width="42.999" height="3.492" x="20.596" rx=".324"/><rect width="41.895" height="3.492" x="20.596" y="12.969" rx=".324"/><rect width="69.066" height="7.482" y="28.932" rx=".324"/><rect width="48.681" height="1.986" x="20.596" y="7.282" rx=".324"/><rect width="67.279" height="1.986" y="21.969" rx=".324"/></g><g xmlns="http://www.w3.org/2000/svg" transform="translate(50 110)">
 <circle id="svg_2" fill="#FF3A3A" r="11.04855" cy="53.06614" cx="10.88623"/>
   <path id="svg_3" stroke-width="1.99006" d="m8.10981,58.00851c0,7.34685 -9.4633,-2.15472 -2.14604,-2.15472c7.34151,0 13.33449,9.50157 13.33449,2.15472c0,-7.37121 -5.99625,-13.39084 -13.33449,-13.39084c-7.31726,0 2.14604,6.01963 2.14604,13.39084l0,0" fill="#FFFFFF"/>
   <path id="svg_4" stroke-width="0.6202" d="m2.94443,44.79742a11.45795,11.5043 0 1 0 16.1772,16.24263l-16.1772,-16.24263z" fill="#FFFFFF" opacity="0.18373"/>
</g><g><path fill="url(#a)" d="M0 6.19C0 2.77 2.773 0 6.179 0H56.47c3.412 0 6.178 2.78 6.178 6.19v102.373c0 3.419-2.772 6.19-6.178 6.19H6.179c-3.413 0-6.179-2.78-6.179-6.19V6.19z" transform="translate(137 7)"/><path fill="#FFF" d="M139.805 14.14a3.376 3.376 0 0 1 3.376-3.378h50.287a3.382 3.382 0 0 1 3.376 3.378v93.889a3.376 3.376 0 0 1-3.376 3.377h-50.287a3.382 3.382 0 0 1-3.376-3.377v-93.89zm6.546 101.029c0-.52.42-.94.938-.94h42.071a.94.94 0 1 1 0 1.881H147.29a.937.937 0 0 1-.938-.941z"/><g transform="translate(148.22 21.109)"><g fill="#EBEBEB" fill-rule="nonzero" transform="translate(.179 .94)"><rect width="18.47" height="3.292" x="19.286" rx=".562"/><rect width="35.407" height="3.292" y="16.931" rx=".562"/><rect width="35.407" height="3.292" y="67.723" rx=".562"/><rect width="41.018" height="7.054" y="31.98" rx=".562"/><rect width="41.018" height="14.579" y="43.268" rx=".562"/></g><rect width="20.846" height="1.625" x="19.286" y="7.753" fill="#EBEBEB" fill-rule="nonzero" rx=".562"/><rect width="20.846" height="1.625" x="19.286" y="12.921" fill="#EBEBEB" fill-rule="nonzero" rx=".562"/><rect width="39.964" height="1.625" y="24.456" fill="#EBEBEB" fill-rule="nonzero" rx=".562"/><rect width="39.964" height="1.625" y="75.248" fill="#EBEBEB" fill-rule="nonzero" rx=".562"/><g xmlns="http://www.w3.org/2000/svg" transform="translate(-5 -50)">
 <circle id="svg_2" fill="#FF3A3A" r="11.04855" cy="53.06614" cx="10.88623"/>
   <path id="svg_3" stroke-width="1.99006" d="m8.10981,58.00851c0,7.34685 -9.4633,-2.15472 -2.14604,-2.15472c7.34151,0 13.33449,9.50157 13.33449,2.15472c0,-7.37121 -5.99625,-13.39084 -13.33449,-13.39084c-7.31726,0 2.14604,6.01963 2.14604,13.39084l0,0" fill="#FFFFFF"/>
   <path id="svg_4" stroke-width="0.6202" d="m2.94443,44.79742a11.45795,11.5043 0 1 0 16.1772,16.24263l-16.1772,-16.24263z" fill="#FFFFFF" opacity="0.18373"/>
  
</g></g></g></g></svg>